<?xml version="1.0" encoding="UTF-8" standalone="no"?>
<!-- Created with Inkscape (http://www.inkscape.org/) -->

<svg
   xmlns:dc="http://purl.org/dc/elements/1.1/"
   xmlns:cc="http://creativecommons.org/ns#"
   xmlns:rdf="http://www.w3.org/1999/02/22-rdf-syntax-ns#"
   xmlns:svg="http://www.w3.org/2000/svg"
   xmlns="http://www.w3.org/2000/svg"
   xmlns:xlink="http://www.w3.org/1999/xlink"
   xmlns:sodipodi="http://sodipodi.sourceforge.net/DTD/sodipodi-0.dtd"
   xmlns:inkscape="http://www.inkscape.org/namespaces/inkscape"
   width="150mm"
   height="180mm"
   viewBox="0 0 150 180"
   version="1.1"
   id="svg8"
   inkscape:version="0.92.0 r15299"
   sodipodi:docname="logo color.svg">
  <defs
     id="defs2">
    <linearGradient
       inkscape:collect="always"
       id="linearGradient7666">
      <stop
         style="stop-color:#7b7f9e;stop-opacity:1;"
         offset="0"
         id="stop7662" />
      <stop
         style="stop-color:#7b7f9e;stop-opacity:0;"
         offset="1"
         id="stop7664" />
    </linearGradient>
    <linearGradient
       inkscape:collect="always"
       xlink:href="#linearGradient7666"
       id="linearGradient7668"
       x1="33.561983"
       y1="221.3607"
       x2="104.69544"
       y2="221.3607"
       gradientUnits="userSpaceOnUse" />
    <linearGradient
       inkscape:collect="always"
       xlink:href="#linearGradient7666"
       id="linearGradient7676"
       x1="44.500587"
       y1="221.30132"
       x2="115.90107"
       y2="221.30132"
       gradientUnits="userSpaceOnUse" />
    <radialGradient
       inkscape:collect="always"
       xlink:href="#linearGradient7666"
       id="radialGradient7796"
       cx="70.325912"
       cy="219.72786"
       fx="70.325912"
       fy="219.72786"
       r="37.391163"
       gradientTransform="matrix(1.6321122,-0.85759315,0.75308704,1.4332233,-207.70147,-36.172077)"
       gradientUnits="userSpaceOnUse" />
    <radialGradient
       inkscape:collect="always"
       xlink:href="#linearGradient7666"
       id="radialGradient7818"
       gradientUnits="userSpaceOnUse"
       gradientTransform="matrix(-1.6321122,-0.85759315,-0.75308704,1.4332233,357.11227,-36.400489)"
       cx="70.325912"
       cy="219.72786"
       fx="70.325912"
       fy="219.72786"
       r="37.391163" />
  </defs>
  <sodipodi:namedview
     id="base"
     pagecolor="#ffffff"
     bordercolor="#666666"
     borderopacity="1.0"
     inkscape:pageopacity="0.0"
     inkscape:pageshadow="2"
     inkscape:zoom="1"
     inkscape:cx="291.97566"
     inkscape:cy="276.93022"
     inkscape:document-units="px"
     inkscape:current-layer="layer1"
     showgrid="false"
     showborder="false"
     units="mm"
     inkscape:snap-smooth-nodes="false"
     inkscape:object-paths="false"
     inkscape:snap-nodes="true"
     inkscape:object-nodes="true"
     inkscape:snap-bbox="false"
     inkscape:bbox-nodes="false"
     inkscape:snap-bbox-edge-midpoints="false"
     inkscape:window-width="1440"
     inkscape:window-height="837"
     inkscape:window-x="-8"
     inkscape:window-y="-8"
     inkscape:window-maximized="1" />
  <metadata
     id="metadata5">
    <rdf:RDF>
      <cc:Work
         rdf:about="">
        <dc:format>image/svg+xml</dc:format>
        <dc:type
           rdf:resource="http://purl.org/dc/dcmitype/StillImage" />
        <dc:title />
      </cc:Work>
    </rdf:RDF>
  </metadata>
  <g
     inkscape:label="Capa 1"
     inkscape:groupmode="layer"
     id="layer1"
     transform="translate(0,-117)">
    <path
       sodipodi:nodetypes="cccccc"
       inkscape:connector-curvature="0"
       id="path4907"
       d="M 135.69172,209.10346 H 99.571478 v 25.74796 h 36.120242 l -7.10941,-12.87398 z"
       style="fill:#00659a;stroke:#000000;stroke-width:1.06441879;stroke-linejoin:miter;stroke-miterlimit:4;stroke-dasharray:none;stroke-opacity:1;fill-opacity:1" />
    <path
       style="fill:#00659a;stroke:#000000;stroke-width:1.06441879;stroke-linejoin:miter;stroke-miterlimit:4;stroke-dasharray:none;stroke-opacity:1;fill-opacity:1"
       d="m 13.774778,190.76877 h 36.12025 v 25.74796 h -36.12025 l 7.10941,-12.87398 z"
       id="rect4904"
       inkscape:connector-curvature="0"
       sodipodi:nodetypes="cccccc" />
    <flowRoot
       xml:space="preserve"
       id="flowRoot3680"
       style="font-style:normal;font-variant:normal;font-weight:normal;font-stretch:normal;font-size:40px;line-height:25px;font-family:'Old English Text MT';-inkscape-font-specification:'Old English Text MT, Normal';font-variant-ligatures:normal;font-variant-caps:normal;font-variant-numeric:normal;font-feature-settings:normal;text-align:start;letter-spacing:0px;word-spacing:0px;writing-mode:lr-tb;text-anchor:start;fill:#000000;fill-opacity:1;stroke:none"
       transform="scale(0.26458333)"><flowRegion
         id="flowRegion3682"
         style="font-style:normal;font-variant:normal;font-weight:normal;font-stretch:normal;font-size:40px;font-family:'Old English Text MT';-inkscape-font-specification:'Old English Text MT, Normal';font-variant-ligatures:normal;font-variant-caps:normal;font-variant-numeric:normal;font-feature-settings:normal;text-align:start;writing-mode:lr-tb;text-anchor:start"><rect
           id="rect3684"
           width="440.00006"
           height="162.85716"
           x="122.85713"
           y="128.23396"
           ry="0"
           style="font-style:normal;font-variant:normal;font-weight:normal;font-stretch:normal;font-size:40px;font-family:'Old English Text MT';-inkscape-font-specification:'Old English Text MT, Normal';font-variant-ligatures:normal;font-variant-caps:normal;font-variant-numeric:normal;font-feature-settings:normal;text-align:start;writing-mode:lr-tb;text-anchor:start" /></flowRegion><flowPara
         id="flowPara3688" /></flowRoot>    <path
       sodipodi:nodetypes="cccccc"
       inkscape:connector-curvature="0"
       id="path4621"
       d="m 41.106515,276.10458 -7.123681,5.16327 1.031464,-8.73741 66.214622,-112.8647 6.09221,3.57413 z"
       style="fill:url(#radialGradient7796);stroke:#000000;stroke-width:1.09847486;stroke-linejoin:miter;stroke-miterlimit:4;stroke-dasharray:none;stroke-opacity:1;fill-opacity:1" />
    <path
       sodipodi:nodetypes="cc"
       inkscape:connector-curvature="0"
       id="path4623"
       d="M 34.035713,281.17772 104.22171,161.54368"
       style="fill:url(#linearGradient7668);stroke:#000000;stroke-width:1.09847486;stroke-linecap:butt;stroke-linejoin:miter;stroke-miterlimit:4;stroke-dasharray:none;stroke-opacity:1;fill-opacity:1" />
    <rect
       ry="1.8595164"
       y="-81.907822"
       x="-176.14313"
       height="3.7190328"
       width="9.0109444"
       id="rect4625"
       style="fill:#483e37;stroke:#000000;stroke-width:0.99160922;stroke-linejoin:miter;stroke-miterlimit:4;stroke-dasharray:none;stroke-opacity:1"
       transform="rotate(-149.60102)" />
    <path
       sodipodi:nodetypes="ccccccccc"
       inkscape:connector-curvature="0"
       id="path4627"
       d="m 111.65401,170.33396 -7.43238,-8.79014 -11.299149,-2.19913 1.175619,-2.00388 1.17562,-2.00388 11.29915,2.19913 7.43238,8.79015 -1.17562,2.00388 z"
       style="fill:#87733f;stroke:#000000;stroke-width:1.09847486;stroke-linejoin:miter;stroke-miterlimit:4;stroke-dasharray:none;stroke-opacity:1;fill-opacity:1" />
    <rect
       style="fill:#483e37;stroke:#000000;stroke-width:0.99160922;stroke-linejoin:miter;stroke-miterlimit:4;stroke-dasharray:none;stroke-opacity:1"
       id="rect4629"
       width="9.0109444"
       height="3.7190328"
       x="-176.14313"
       y="-66.535881"
       ry="1.8595164"
       transform="rotate(-149.60102)" />
    <rect
       ry="1.8595164"
       y="-70.37886"
       x="-176.14313"
       height="3.7190328"
       width="9.0109444"
       id="rect4631"
       style="fill:#483e37;stroke:#000000;stroke-width:0.99160922;stroke-linejoin:miter;stroke-miterlimit:4;stroke-dasharray:none;stroke-opacity:1"
       transform="rotate(-149.60102)" />
    <rect
       style="fill:#483e37;stroke:#000000;stroke-width:0.99160922;stroke-linejoin:miter;stroke-miterlimit:4;stroke-dasharray:none;stroke-opacity:1"
       id="rect4633"
       width="9.0109444"
       height="3.7190328"
       x="-176.14313"
       y="-78.064827"
       ry="1.8595164"
       transform="rotate(-149.60102)" />
    <rect
       ry="1.8595164"
       y="-74.22184"
       x="-176.14313"
       height="3.7190328"
       width="9.0109444"
       id="rect4635"
       style="fill:#483e37;stroke:#000000;stroke-width:0.99160922;stroke-linejoin:miter;stroke-miterlimit:4;stroke-dasharray:none;stroke-opacity:1"
       transform="rotate(-149.60102)" />
    <ellipse
       ry="5.1151013"
       rx="5.0767832"
       cy="-57.53529"
       cx="-171.63766"
       id="ellipse4637"
       style="fill:#87733f;stroke:#000000;stroke-width:1.09847498;stroke-linejoin:miter;stroke-miterlimit:4;stroke-dasharray:none;stroke-opacity:1;fill-opacity:1"
       transform="rotate(-149.60102)" />
    <ellipse
       ry="2.1241844"
       rx="2.1082716"
       style="fill:#ffffff;stroke:#000000;stroke-width:1.09847498;stroke-linejoin:miter;stroke-miterlimit:4;stroke-dasharray:none;stroke-opacity:1"
       id="ellipse4639"
       cx="-171.63766"
       cy="-57.53529"
       transform="rotate(-149.60102)" />
    <path
       style="fill:url(#radialGradient7818);fill-opacity:1;stroke:#000000;stroke-width:1.09847486;stroke-linejoin:miter;stroke-miterlimit:4;stroke-dasharray:none;stroke-opacity:1"
       d="m 108.30428,275.87617 7.12368,5.16327 -1.03146,-8.73741 -66.214647,-112.8647 -6.09221,3.57413 z"
       id="path7816"
       inkscape:connector-curvature="0"
       sodipodi:nodetypes="cccccc" />
    <path
       style="fill:url(#linearGradient7676);stroke:#000000;stroke-width:1.09847498;stroke-linecap:butt;stroke-linejoin:miter;stroke-miterlimit:4;stroke-dasharray:none;stroke-opacity:1;fill-opacity:1.0"
       d="M 115.42796,281.03944 44.973693,161.56318"
       id="path4844"
       inkscape:connector-curvature="0"
       sodipodi:nodetypes="cc" />
    <rect
       style="fill:#483e37;stroke:#000000;stroke-width:0.99160922;stroke-linejoin:miter;stroke-miterlimit:4;stroke-dasharray:none;stroke-opacity:1;fill-opacity:1"
       id="rect4846"
       width="9.0109444"
       height="3.7190328"
       x="38.82127"
       y="-157.32344"
       ry="1.8595164"
       transform="rotate(149.47246)" />
    <path
       style="fill:#87733f;stroke:#000000;stroke-width:1.09847498;stroke-linejoin:miter;stroke-miterlimit:4;stroke-dasharray:none;stroke-opacity:1;fill-opacity:1"
       d="m 56.267959,159.33884 -11.294181,2.22448 -7.412642,8.8068 -1.180111,-2.00123 -1.180114,-2.00124 7.412639,-8.8068 11.294184,-2.22447 1.180114,2.00123 z"
       id="path4848"
       inkscape:connector-curvature="0"
       sodipodi:nodetypes="ccccccccc" />
    <rect
       ry="1.8595164"
       y="-141.95151"
       x="38.82127"
       height="3.7190328"
       width="9.0109444"
       id="rect4850"
       style="fill:#483e37;stroke:#000000;stroke-width:0.99160922;stroke-linejoin:miter;stroke-miterlimit:4;stroke-dasharray:none;stroke-opacity:1;fill-opacity:1"
       transform="rotate(149.47246)" />
    <rect
       style="fill:#483e37;stroke:#000000;stroke-width:0.99160922;stroke-linejoin:miter;stroke-miterlimit:4;stroke-dasharray:none;stroke-opacity:1;fill-opacity:1"
       id="rect4852"
       width="9.0109444"
       height="3.7190328"
       x="38.82127"
       y="-145.79449"
       ry="1.8595164"
       transform="rotate(149.47246)" />
    <rect
       ry="1.8595164"
       y="-153.48045"
       x="38.82127"
       height="3.7190328"
       width="9.0109444"
       id="rect4854"
       style="fill:#483e37;stroke:#000000;stroke-width:0.99160922;stroke-linejoin:miter;stroke-miterlimit:4;stroke-dasharray:none;stroke-opacity:1;fill-opacity:1"
       transform="rotate(149.47246)" />
    <rect
       style="fill:#483e37;stroke:#000000;stroke-width:0.99160922;stroke-linejoin:miter;stroke-miterlimit:4;stroke-dasharray:none;stroke-opacity:1;fill-opacity:1"
       id="rect4856"
       width="9.0109444"
       height="3.7190328"
       x="38.82127"
       y="-149.63747"
       ry="1.8595164"
       transform="rotate(149.47246)" />
    <ellipse
       style="fill:#87733f;stroke:#000000;stroke-width:1.09847498;stroke-linejoin:miter;stroke-miterlimit:4;stroke-dasharray:none;stroke-opacity:1;fill-opacity:1"
       id="ellipse4858"
       cx="43.32674"
       cy="-132.95093"
       rx="5.0767832"
       ry="5.1151013"
       transform="rotate(149.47246)" />
    <ellipse
       cy="-132.95093"
       cx="43.32674"
       id="ellipse4860"
       style="fill:#ffffff;stroke:#000000;stroke-width:1.09847498;stroke-linejoin:miter;stroke-miterlimit:4;stroke-dasharray:none;stroke-opacity:1"
       rx="2.1082716"
       ry="2.1241844"
       transform="rotate(149.47246)" />
    <path
       sodipodi:type="star"
       style="fill:#d1d6d6;stroke:#000000;stroke-width:1.70577562;stroke-linejoin:miter;stroke-miterlimit:4;stroke-dasharray:none;stroke-opacity:1;fill-opacity:1"
       id="path4645"
       sodipodi:sides="6"
       sodipodi:cx="46.566666"
       sodipodi:cy="42.999992"
       sodipodi:r1="78.345268"
       sodipodi:r2="39.172634"
       sodipodi:arg1="0.90027477"
       sodipodi:arg2="1.4238735"
       inkscape:flatsided="true"
       inkscape:rounded="0"
       inkscape:randomized="0"
       d="M 95.250001,104.38333 17.748805,115.85267 -30.93453,54.469329 -2.1166696,-18.383344 75.384526,-29.852681 124.06786,31.530655 Z"
       transform="matrix(0.09569762,-0.63686029,0.63679855,0.09561925,42.894609,237.97523)" />
    <path
       transform="matrix(0.08014847,-0.53356739,0.53333016,0.08011069,48.067821,233.83209)"
       d="M 95.250001,104.38333 17.748805,115.85267 -30.93453,54.469329 -2.1166696,-18.383344 75.384526,-29.852681 124.06786,31.530655 Z"
       inkscape:randomized="0"
       inkscape:rounded="0"
       inkscape:flatsided="true"
       sodipodi:arg2="1.4238735"
       sodipodi:arg1="0.90027477"
       sodipodi:r2="39.172634"
       sodipodi:r1="78.345268"
       sodipodi:cy="42.999992"
       sodipodi:cx="46.566666"
       sodipodi:sides="6"
       id="path4898"
       style="fill:#9497a9;stroke:#000000;stroke-width:2.03648877;stroke-linejoin:miter;stroke-miterlimit:4;stroke-dasharray:none;stroke-opacity:1;fill-opacity:1"
       sodipodi:type="star" />
    <path
       style="fill:#c8ab37;fill-opacity:1;stroke:#c8ab37;stroke-width:0.86590344;stroke-linejoin:miter;stroke-miterlimit:4;stroke-dasharray:none;stroke-opacity:1"
       d="M 109.78473,232.66738 84.851752,229.95613 74.733266,252.90435 64.614778,229.95613 39.681794,232.66738 54.496291,212.4304 39.681795,192.19343 64.61478,194.90467 74.733267,171.95645 84.851754,194.90467 109.78473,192.19343 94.97024,212.4304 Z"
       id="path5807"
       inkscape:connector-curvature="0" />
    <path
       style="fill:#00659a;stroke:#000000;stroke-width:1.06441879;stroke-linejoin:miter;stroke-miterlimit:4;stroke-dasharray:none;stroke-opacity:1;fill-opacity:1"
       d="m 25.207151,200.08806 h 99.052229 v 25.44406 H 25.207151 Z"
       id="rect4902" />
    <g
       id="g4961"
       transform="translate(125.34941,195.32057)">
      <path
         style="fill:none;stroke:#000000;stroke-width:1.06441879;stroke-linecap:butt;stroke-linejoin:miter;stroke-miterlimit:4;stroke-dasharray:none;stroke-opacity:1"
         d="m -99.998891,7.3867226 h 5.612659"
         id="path4917"
         inkscape:connector-curvature="0" />
      <path
         sodipodi:nodetypes="cc"
         inkscape:connector-curvature="0"
         id="path4919"
         d="m -99.998891,10.273239 h 3.928861"
         style="fill:none;stroke:#000000;stroke-width:1.06441879;stroke-linecap:butt;stroke-linejoin:miter;stroke-miterlimit:4;stroke-dasharray:none;stroke-opacity:1" />
      <path
         sodipodi:nodetypes="cc"
         inkscape:connector-curvature="0"
         id="path4923"
         d="m -99.998891,13.159756 h 3.180506"
         style="fill:none;stroke:#000000;stroke-width:1.06441879;stroke-linecap:butt;stroke-linejoin:miter;stroke-miterlimit:4;stroke-dasharray:none;stroke-opacity:1" />
      <path
         sodipodi:nodetypes="cc"
         style="fill:none;stroke:#000000;stroke-width:1.06441879;stroke-linecap:butt;stroke-linejoin:miter;stroke-miterlimit:4;stroke-dasharray:none;stroke-opacity:1"
         d="m -99.998891,16.046272 h 2.432152"
         id="path4925"
         inkscape:connector-curvature="0" />
      <path
         sodipodi:nodetypes="cc"
         inkscape:connector-curvature="0"
         id="path4927"
         d="m -99.998891,18.932788 h 2.432152"
         style="fill:none;stroke:#000000;stroke-width:1.06441879;stroke-linecap:butt;stroke-linejoin:miter;stroke-miterlimit:4;stroke-dasharray:none;stroke-opacity:1" />
      <path
         sodipodi:nodetypes="cc"
         style="fill:none;stroke:#000000;stroke-width:1.06441879;stroke-linecap:butt;stroke-linejoin:miter;stroke-miterlimit:4;stroke-dasharray:none;stroke-opacity:1"
         d="m -99.998891,21.819305 h 3.180506"
         id="path4929"
         inkscape:connector-curvature="0" />
      <path
         sodipodi:nodetypes="cc"
         inkscape:connector-curvature="0"
         id="path4931"
         d="m -99.998891,24.705805 h 3.928861"
         style="fill:none;stroke:#000000;stroke-width:1.06441879;stroke-linecap:butt;stroke-linejoin:miter;stroke-miterlimit:4;stroke-dasharray:none;stroke-opacity:1" />
      <path
         style="fill:none;stroke:#000000;stroke-width:1.06441879;stroke-linecap:butt;stroke-linejoin:miter;stroke-miterlimit:4;stroke-dasharray:none;stroke-opacity:1"
         d="m -99.998891,27.592318 h 5.612659"
         id="path4933"
         inkscape:connector-curvature="0" />
    </g>
    <g
       id="g4979"
       transform="matrix(-1,0,0,1,23.892558,195.32057)">
      <path
         inkscape:connector-curvature="0"
         id="path4963"
         d="m -99.998891,7.3867226 h 5.612659"
         style="fill:none;stroke:#000000;stroke-width:1.06441879;stroke-linecap:butt;stroke-linejoin:miter;stroke-miterlimit:4;stroke-dasharray:none;stroke-opacity:1" />
      <path
         style="fill:none;stroke:#000000;stroke-width:1.06441879;stroke-linecap:butt;stroke-linejoin:miter;stroke-miterlimit:4;stroke-dasharray:none;stroke-opacity:1"
         d="m -99.998891,10.273239 h 3.928861"
         id="path4965"
         inkscape:connector-curvature="0"
         sodipodi:nodetypes="cc" />
      <path
         style="fill:none;stroke:#000000;stroke-width:1.06441879;stroke-linecap:butt;stroke-linejoin:miter;stroke-miterlimit:4;stroke-dasharray:none;stroke-opacity:1"
         d="m -99.998891,13.159756 h 3.180506"
         id="path4967"
         inkscape:connector-curvature="0"
         sodipodi:nodetypes="cc" />
      <path
         inkscape:connector-curvature="0"
         id="path4969"
         d="m -99.998891,16.046272 h 2.432152"
         style="fill:none;stroke:#000000;stroke-width:1.06441879;stroke-linecap:butt;stroke-linejoin:miter;stroke-miterlimit:4;stroke-dasharray:none;stroke-opacity:1"
         sodipodi:nodetypes="cc" />
      <path
         style="fill:none;stroke:#000000;stroke-width:1.06441879;stroke-linecap:butt;stroke-linejoin:miter;stroke-miterlimit:4;stroke-dasharray:none;stroke-opacity:1"
         d="m -99.998891,18.932788 h 2.432152"
         id="path4971"
         inkscape:connector-curvature="0"
         sodipodi:nodetypes="cc" />
      <path
         inkscape:connector-curvature="0"
         id="path4973"
         d="m -99.998891,21.819305 h 3.180506"
         style="fill:none;stroke:#000000;stroke-width:1.06441879;stroke-linecap:butt;stroke-linejoin:miter;stroke-miterlimit:4;stroke-dasharray:none;stroke-opacity:1"
         sodipodi:nodetypes="cc" />
      <path
         style="fill:none;stroke:#000000;stroke-width:1.06441879;stroke-linecap:butt;stroke-linejoin:miter;stroke-miterlimit:4;stroke-dasharray:none;stroke-opacity:1"
         d="m -99.998891,24.705805 h 3.928861"
         id="path4975"
         inkscape:connector-curvature="0"
         sodipodi:nodetypes="cc" />
      <path
         inkscape:connector-curvature="0"
         id="path4977"
         d="m -99.998891,27.592318 h 5.612659"
         style="fill:none;stroke:#000000;stroke-width:1.06441879;stroke-linecap:butt;stroke-linejoin:miter;stroke-miterlimit:4;stroke-dasharray:none;stroke-opacity:1" />
    </g>
    <flowRoot
       xml:space="preserve"
       id="flowRoot4981"
       style="font-style:normal;font-variant:normal;font-weight:normal;font-stretch:normal;font-size:40px;line-height:25px;font-family:'Old English Text MT';-inkscape-font-specification:'Old English Text MT, Normal';font-variant-ligatures:normal;font-variant-caps:normal;font-variant-numeric:normal;font-feature-settings:normal;text-align:start;letter-spacing:0px;word-spacing:0px;writing-mode:lr-tb;text-anchor:start;fill:#000000;fill-opacity:1;stroke:none"><flowRegion
         id="flowRegion4983"
         style="font-style:normal;font-variant:normal;font-weight:normal;font-stretch:normal;font-size:40px;font-family:'Old English Text MT';-inkscape-font-specification:'Old English Text MT, Normal';font-variant-ligatures:normal;font-variant-caps:normal;font-variant-numeric:normal;font-feature-settings:normal;text-align:start;writing-mode:lr-tb;text-anchor:start"><rect
           id="rect4985"
           width="298"
           height="73"
           x="-336"
           y="27.519653"
           style="font-style:normal;font-variant:normal;font-weight:normal;font-stretch:normal;font-size:40px;font-family:'Old English Text MT';-inkscape-font-specification:'Old English Text MT, Normal';font-variant-ligatures:normal;font-variant-caps:normal;font-variant-numeric:normal;font-feature-settings:normal;text-align:start;writing-mode:lr-tb;text-anchor:start" /></flowRegion><flowPara
         id="flowPara4989" /></flowRoot>    <g
       aria-label="J.G.V.M"
       transform="matrix(0.53493489,0,0,0.53493489,221.60706,191.94147)"
       style="font-style:normal;font-weight:normal;font-size:40px;line-height:25px;font-family:sans-serif;letter-spacing:0px;word-spacing:0px;fill:#808080;fill-opacity:1;stroke:none"
       id="flowRoot5013">
      <path
         d="m -325.27734,21.813496 0.68359,0.644532 q -2.51953,2.753906 -3.45703,4.824218 -0.91797,2.050782 -0.91797,4.472657 0,1.210937 0.0781,4.316406 0.0391,1.640625 0.0391,3.398437 0,5.410157 -1.34766,8.085938 -1.77734,3.515625 -5.82031,6.171875 -3.33984,2.207031 -5.87891,2.207031 -0.70312,0 -1.25,-0.136719 -0.52734,-0.117187 -1.71875,-0.566406 -1.62109,-0.644531 -2.63672,-0.644531 -0.85937,0 -1.40625,0.371094 -0.37109,0.253906 -0.70312,1.074218 l -0.78125,-0.332031 q 0.50781,-1.933594 1.32812,-2.851562 1.32813,-1.445313 3.51563,-1.445313 0.91797,0 2.05078,0.371094 1.62109,0.527344 2.40234,0.527344 1.52344,0 2.46094,-0.957032 0.95703,-0.976562 0.95703,-2.558593 0,-2.167969 -1.5039,-4.257813 -2.08985,-2.890625 -5.13672,-2.890625 -0.56641,0 -1.40625,0.195313 l -0.42969,-0.703125 q 1.83594,-1.09375 3.45703,-1.09375 0.87891,0 1.6211,0.234375 0.74218,0.214843 1.8164,0.859375 -0.21484,-1.738282 -0.70312,-2.636719 -0.64453,-1.191406 -1.73828,-1.855469 -1.07422,-0.683594 -2.08985,-0.683594 -0.91797,0 -1.93359,0.703125 l -0.52735,-0.664062 q 1.11329,-0.9375 2.03125,-1.308594 0.91797,-0.371094 2.05079,-0.371094 1.5039,0 3.32031,1.035157 0.0781,-2.226563 0.58594,-3.535157 0.50781,-1.328125 1.875,-2.734375 1.36718,-1.425781 4.43359,-3.398437 -2.79297,0.878906 -4.66797,0.878906 -1.93359,0 -4.29687,-0.839844 -2.36329,-0.859375 -3.63282,-0.859375 -1.66015,0 -2.61718,0.800782 -0.95704,0.78125 -0.95704,1.601562 0,0.253906 0.13672,0.410156 0.15625,0.15625 0.3711,0.15625 0.19531,0 0.58593,-0.175781 0.41016,-0.175781 0.72266,-0.175781 0.66406,0 1.13281,0.488281 0.46875,0.46875 0.46875,1.171875 0,0.78125 -0.52734,1.308594 -0.50781,0.527344 -1.30859,0.527344 -1.03516,0 -1.83594,-0.878907 -0.78125,-0.898437 -0.78125,-2.363281 0,-2.128906 1.95312,-3.90625 1.95313,-1.777344 4.78516,-1.777344 1.77734,0 6.01562,0.957032 3.39844,0.78125 5.33204,0.78125 1.8164,0 3.08593,-0.449219 1.28907,-0.449219 2.71485,-1.523438 z m -2.79297,2.753907 q -2.77344,1.347656 -4.08203,2.597656 -1.73828,1.699219 -2.61719,3.945312 -0.87891,2.226563 -0.87891,6.09375 l 0.11719,8.652344 q 0,3.183594 -0.80078,4.960938 -0.56641,1.289062 -2.42188,2.753906 2.16797,-0.898438 3.125,-1.640625 1.32813,-1.035156 2.08985,-2.675781 0.76172,-1.660157 0.76172,-4.199219 l -0.13672,-8.867188 q 0,-3.984375 1.34765,-7.03125 0.91797,-2.109375 3.4961,-4.589843 z"
         style="font-style:normal;font-variant:normal;font-weight:normal;font-stretch:normal;font-size:40px;font-family:'Old English Text MT';-inkscape-font-specification:'Old English Text MT, Normal';font-variant-ligatures:normal;font-variant-caps:normal;font-variant-numeric:normal;font-feature-settings:normal;text-align:start;writing-mode:lr-tb;text-anchor:start;fill:#808080"
         id="path4571" />
      <path
         d="m -318.36328,51.40334 -2.96875,-2.96875 2.96875,-2.988281 2.98828,2.988281 z"
         style="font-style:normal;font-variant:normal;font-weight:normal;font-stretch:normal;font-size:40px;font-family:'Old English Text MT';-inkscape-font-specification:'Old English Text MT, Normal';font-variant-ligatures:normal;font-variant-caps:normal;font-variant-numeric:normal;font-feature-settings:normal;text-align:start;writing-mode:lr-tb;text-anchor:start;fill:#808080"
         id="path4573" />
      <path
         d="m -284.41797,24.37209 0.35156,0.644531 -7.10937,5.273438 q 2.08984,0 4.25781,1.054687 2.1875,1.054688 3.30078,2.929688 1.11328,1.875 1.11328,3.925781 0,3.261719 -2.26562,6.289063 -2.24609,3.007812 -6.42578,4.960937 -4.16016,1.953125 -7.85156,1.953125 -3.53516,0 -6.46485,-1.582031 -2.91015,-1.582031 -4.3164,-3.964844 -1.38672,-2.382812 -1.38672,-5.253906 0,-3.222656 1.5625,-5.996094 1.5625,-2.773437 5.80078,-6.132812 l 7.89062,-6.269532 q 3.30078,1.601563 5.15625,2.128907 1.85547,0.527343 3.65235,0.527343 1.34765,0 2.73437,-0.488281 z m -14.53125,1.210938 -0.33203,0.332031 v 9.238281 l 9.14063,-6.875 q -4.27735,-1.074219 -8.8086,-2.695312 z m -4.39453,3.59375 q -2.24609,2.304687 -3.16406,4.335937 -0.89844,2.03125 -0.89844,4.726563 0,2.167968 0.58594,3.828125 0.60547,1.660156 1.77734,3.203125 1.11328,-1.015625 1.40625,-1.71875 0.29297,-0.703125 0.29297,-2.617188 z m 7.5,9.882812 q 1.36719,0.9375 2.5,1.328125 1.13281,0.390625 2.5,0.390625 1.25,0 2.30469,-0.3125 1.05469,-0.3125 2.67578,-1.230469 -0.48828,-2.050781 -1.79688,-3.320312 -2.1289,-2.070313 -5.3125,-2.070313 -1.34765,0 -2.87109,0.527344 z m -0.85937,-4.296875 q -1.5625,0.742188 -2.57813,1.503906 v 3.28125 q 0,1.503907 -0.21484,2.03125 -0.21485,0.507813 -0.91797,1.074219 -0.42969,0.332031 -0.70313,0.546875 l -3.35937,2.8125 q 1.75781,1.855469 3.57422,2.753906 1.8164,0.878907 4.19922,1.015625 z m 0.85937,9.726563 q 2.44141,-1.289063 4.62891,-1.289063 2.10937,0 4.47265,1.171875 0.9961,-2.070312 0.9961,-3.945312 v -0.253907 q -1.75782,0.878907 -2.83203,1.171875 -1.07422,0.292969 -2.34375,0.292969 -1.21094,0 -2.44141,-0.371094 -1.23047,-0.371093 -2.48047,-1.09375 z m 0,5.273437 q 1.81641,-0.09766 2.96875,-0.507812 1.75781,-0.605469 3.32031,-1.757813 1.17188,-0.859375 2.38282,-2.382812 -2.36329,-0.957032 -4.17969,-0.957032 -2.20703,0 -4.49219,1.269532 z"
         style="font-style:normal;font-variant:normal;font-weight:normal;font-stretch:normal;font-size:40px;font-family:'Old English Text MT';-inkscape-font-specification:'Old English Text MT, Normal';font-variant-ligatures:normal;font-variant-caps:normal;font-variant-numeric:normal;font-feature-settings:normal;text-align:start;writing-mode:lr-tb;text-anchor:start;fill:#808080"
         id="path4575" />
      <path
         d="m -275.39453,51.40334 -2.96875,-2.96875 2.96875,-2.988281 2.98828,2.988281 z"
         style="font-style:normal;font-variant:normal;font-weight:normal;font-stretch:normal;font-size:40px;font-family:'Old English Text MT';-inkscape-font-specification:'Old English Text MT, Normal';font-variant-ligatures:normal;font-variant-caps:normal;font-variant-numeric:normal;font-feature-settings:normal;text-align:start;writing-mode:lr-tb;text-anchor:start;fill:#808080"
         id="path4577" />
      <path
         d="m -257.58203,28.258809 12.20703,-6.445313 q 3.39844,4.941407 3.39844,10.273438 0,4.003906 -1.75781,7.324219 -2.38282,4.511718 -9.60938,11.992187 -1.26953,-0.839844 -2.20703,-1.152344 -0.9375,-0.332031 -1.95313,-0.332031 -1.1914,0 -2.26562,0.3125 -1.07422,0.292969 -2.73438,1.171875 l -0.58593,-0.507812 q 1.58203,-2.949219 2.10937,-4.609375 0.54688,-1.679688 0.54688,-3.046875 0,-2.070313 -1.15235,-3.339844 -1.15234,-1.269531 -2.63672,-1.269531 -0.68359,0 -1.09375,0.214843 -0.39062,0.195313 -0.76171,0.742188 l -0.64454,-0.46875 q 0.46875,-1.328125 1.34766,-1.953125 0.87891,-0.644531 2.05078,-0.644531 0.74219,0 1.40625,0.253906 0.66406,0.234375 1.77735,1.015625 -0.19532,-6.601563 -2.71485,-10.429688 -1.40625,-2.148437 -3.02734,-2.148437 -0.82031,0 -1.32813,0.566406 -0.68359,0.761719 -1.01562,2.714844 l -0.76172,-0.234375 q 0.11719,-2.265625 0.66406,-3.613281 0.54688,-1.347657 1.60156,-2.089844 1.07422,-0.742188 2.26563,-0.742188 1.79687,0 3.61328,1.445313 1.81641,1.445312 3.26172,5 z m 0.29297,0.917969 q 0.66406,2.148437 0.89844,4.121093 2.63671,0.839844 4.76562,0.839844 2.73438,0 5.72266,-1.328125 -0.15625,-2.109375 -0.82032,-4.0625 -0.66406,-1.953125 -2.07031,-4.121094 z m 11.38672,4.609375 q -1.77735,0.742187 -3.04688,1.015625 -1.25,0.273437 -2.71484,0.273437 -2.22656,0 -4.66797,-0.859375 0.0781,0.9375 0.0781,1.40625 0,1.894531 -0.625,4.335938 1.17188,-0.371094 2.22657,-0.546875 1.05468,-0.175782 1.97265,-0.175782 2.57813,0 5.3711,1.269532 1.28906,-3.710938 1.40625,-6.71875 z m -1.77735,7.539062 q -1.71875,-0.742187 -2.7539,-0.976562 -1.01563,-0.234375 -2.26563,-0.234375 -0.97656,0 -2.08984,0.214843 -1.11328,0.195313 -2.36328,0.625 -0.625,2.070313 -1.38672,3.652344 -1.26953,2.617188 -3.04688,5.292969 2.10938,-1.601563 3.59375,-2.207031 1.95313,-0.78125 3.75,-0.78125 1.28907,0 2.96875,0.527343 1.36719,-1.796875 2.12891,-3.105468 0.76172,-1.308594 1.46484,-3.007813 z"
         style="font-style:normal;font-variant:normal;font-weight:normal;font-stretch:normal;font-size:40px;font-family:'Old English Text MT';-inkscape-font-specification:'Old English Text MT, Normal';font-variant-ligatures:normal;font-variant-caps:normal;font-variant-numeric:normal;font-feature-settings:normal;text-align:start;writing-mode:lr-tb;text-anchor:start;fill:#808080"
         id="path4579" />
      <path
         d="m -241.17578,51.40334 -2.96875,-2.96875 2.96875,-2.988281 2.98828,2.988281 z"
         style="font-style:normal;font-variant:normal;font-weight:normal;font-stretch:normal;font-size:40px;font-family:'Old English Text MT';-inkscape-font-specification:'Old English Text MT, Normal';font-variant-ligatures:normal;font-variant-caps:normal;font-variant-numeric:normal;font-feature-settings:normal;text-align:start;writing-mode:lr-tb;text-anchor:start;fill:#808080"
         id="path4581" />
      <path
         d="m -197.89453,23.512715 0.60547,0.625 q -1.28906,1.425781 -1.64063,2.34375 -0.35156,0.898438 -0.35156,2.734375 v 15.097656 q 0,2.324219 0.39063,2.929688 0.39062,0.585937 1.03515,0.585937 0.52735,0 1.52344,-0.898437 l 0.56641,0.761719 -4.72657,3.710937 q -1.69922,-0.859375 -2.30468,-1.972656 -0.58594,-1.132813 -0.58594,-3.945313 V 26.813496 l -3.28125,-2.519531 -1.28906,0.800781 v 9.726563 h 2.36328 l -2.36328,2.929687 v 8.222657 l 1.52343,-1.25 0.58594,0.625 -7.22656,6.054687 q -1.64063,-1.953125 -2.65625,-2.851562 -0.74219,-0.644532 -1.75781,-1.171875 v -0.703125 q 0.91796,-0.3125 1.21093,-0.996094 0.21485,-0.507813 0.21485,-2.382813 v -5.546875 h -5.91797 v 8.417969 q 0,3.476563 -1.77735,5.351563 -1.75781,1.875 -4.60937,1.875 -0.625,0 -2.22656,-0.234375 -1.09375,-0.15625 -1.58203,-0.15625 -0.9961,0 -1.46485,0.449218 -0.44922,0.449219 -0.44922,1.523438 h -0.76172 q -0.23437,-0.839844 -0.23437,-1.40625 0,-1.054688 0.54687,-1.992188 0.54688,-0.917968 1.46485,-1.367187 0.70312,-0.351563 2.57812,-0.527344 1.875,-0.175781 2.77344,-1.171875 0.89844,-1.015625 0.89844,-2.792969 0,-2.792968 -1.3086,-4.589843 -1.30859,-1.816407 -3.16406,-1.816407 -1.44531,0 -2.38281,1.367188 l -0.70313,-0.292969 q 0.52735,-1.445312 1.21094,-2.226562 0.70313,-0.78125 1.875,-1.230469 0.85938,-0.332031 2.5,-0.351563 -0.0195,-0.585937 -0.0195,-0.878906 0,-3.28125 1.32813,-5.527344 1.32812,-2.246093 4.12109,-4.121093 2.8125,-1.894532 8.06641,-4.238282 1.85546,0.996094 2.5,1.992188 0.66406,0.996094 0.74218,2.890625 l 7.63672,-4.882813 4.6875,3.496094 z m -18.16406,11.308594 v -5.820313 q 0,-2.128906 -0.54688,-3.085937 -0.54687,-0.957031 -1.95312,-1.542969 -1.34766,0.683594 -1.91407,1.25 -0.76171,0.800781 -1.13281,1.914063 -0.37109,1.113281 -0.37109,3.203125 v 6.191406 l 1.62109,-2.109375 z m 7.24609,-9.140625 -3.24219,2.128906 v 7.011719 h 3.24219 z m -13.30078,0.742187 q -1.69922,1.328125 -2.20703,2.539063 -0.50781,1.191406 -0.50781,4.179687 v 11.054688 q 0,2.714844 -0.70313,3.808594 -0.68359,1.09375 -2.67578,1.894531 0.87891,0.05859 1.48437,0.05859 1.44532,0 2.34375,-0.488282 0.91797,-0.507812 1.19141,-1.230468 0.29297,-0.742188 0.29297,-2.578125 V 30.93459 q 0,-1.679687 0.21484,-2.792969 0.13672,-0.683593 0.56641,-1.71875 z m 13.30078,11.328125 h -3.24219 v 5.058594 q 0,2.617188 0.35157,3.359375 0.5664,1.269531 1.52343,1.269531 0.50782,0 1.36719,-0.761718 z"
         style="font-style:normal;font-variant:normal;font-weight:normal;font-stretch:normal;font-size:40px;font-family:'Old English Text MT';-inkscape-font-specification:'Old English Text MT, Normal';font-variant-ligatures:normal;font-variant-caps:normal;font-variant-numeric:normal;font-feature-settings:normal;text-align:start;writing-mode:lr-tb;text-anchor:start;fill:#808080"
         id="path4583" />
    </g>
    <g
       aria-label="J.G.V.M"
       transform="matrix(0.53493489,0,0,0.53493489,220.81332,191.67689)"
       style="font-style:normal;font-weight:normal;font-size:40px;line-height:25px;font-family:sans-serif;letter-spacing:0px;word-spacing:0px;fill:#000000;fill-opacity:1;stroke:none"
       id="flowRoot4991">
      <path
         d="m -325.27734,21.813496 0.68359,0.644532 q -2.51953,2.753906 -3.45703,4.824218 -0.91797,2.050782 -0.91797,4.472657 0,1.210937 0.0781,4.316406 0.0391,1.640625 0.0391,3.398437 0,5.410157 -1.34766,8.085938 -1.77734,3.515625 -5.82031,6.171875 -3.33984,2.207031 -5.87891,2.207031 -0.70312,0 -1.25,-0.136719 -0.52734,-0.117187 -1.71875,-0.566406 -1.62109,-0.644531 -2.63672,-0.644531 -0.85937,0 -1.40625,0.371094 -0.37109,0.253906 -0.70312,1.074218 l -0.78125,-0.332031 q 0.50781,-1.933594 1.32812,-2.851562 1.32813,-1.445313 3.51563,-1.445313 0.91797,0 2.05078,0.371094 1.62109,0.527344 2.40234,0.527344 1.52344,0 2.46094,-0.957032 0.95703,-0.976562 0.95703,-2.558593 0,-2.167969 -1.5039,-4.257813 -2.08985,-2.890625 -5.13672,-2.890625 -0.56641,0 -1.40625,0.195313 l -0.42969,-0.703125 q 1.83594,-1.09375 3.45703,-1.09375 0.87891,0 1.6211,0.234375 0.74218,0.214843 1.8164,0.859375 -0.21484,-1.738282 -0.70312,-2.636719 -0.64453,-1.191406 -1.73828,-1.855469 -1.07422,-0.683594 -2.08985,-0.683594 -0.91797,0 -1.93359,0.703125 l -0.52735,-0.664062 q 1.11329,-0.9375 2.03125,-1.308594 0.91797,-0.371094 2.05079,-0.371094 1.5039,0 3.32031,1.035157 0.0781,-2.226563 0.58594,-3.535157 0.50781,-1.328125 1.875,-2.734375 1.36718,-1.425781 4.43359,-3.398437 -2.79297,0.878906 -4.66797,0.878906 -1.93359,0 -4.29687,-0.839844 -2.36329,-0.859375 -3.63282,-0.859375 -1.66015,0 -2.61718,0.800782 -0.95704,0.78125 -0.95704,1.601562 0,0.253906 0.13672,0.410156 0.15625,0.15625 0.3711,0.15625 0.19531,0 0.58593,-0.175781 0.41016,-0.175781 0.72266,-0.175781 0.66406,0 1.13281,0.488281 0.46875,0.46875 0.46875,1.171875 0,0.78125 -0.52734,1.308594 -0.50781,0.527344 -1.30859,0.527344 -1.03516,0 -1.83594,-0.878907 -0.78125,-0.898437 -0.78125,-2.363281 0,-2.128906 1.95312,-3.90625 1.95313,-1.777344 4.78516,-1.777344 1.77734,0 6.01562,0.957032 3.39844,0.78125 5.33204,0.78125 1.8164,0 3.08593,-0.449219 1.28907,-0.449219 2.71485,-1.523438 z m -2.79297,2.753907 q -2.77344,1.347656 -4.08203,2.597656 -1.73828,1.699219 -2.61719,3.945312 -0.87891,2.226563 -0.87891,6.09375 l 0.11719,8.652344 q 0,3.183594 -0.80078,4.960938 -0.56641,1.289062 -2.42188,2.753906 2.16797,-0.898438 3.125,-1.640625 1.32813,-1.035156 2.08985,-2.675781 0.76172,-1.660157 0.76172,-4.199219 l -0.13672,-8.867188 q 0,-3.984375 1.34765,-7.03125 0.91797,-2.109375 3.4961,-4.589843 z"
         style="font-style:normal;font-variant:normal;font-weight:normal;font-stretch:normal;font-size:40px;font-family:'Old English Text MT';-inkscape-font-specification:'Old English Text MT, Normal';font-variant-ligatures:normal;font-variant-caps:normal;font-variant-numeric:normal;font-feature-settings:normal;text-align:start;writing-mode:lr-tb;text-anchor:start"
         id="path4556" />
      <path
         d="m -318.36328,51.40334 -2.96875,-2.96875 2.96875,-2.988281 2.98828,2.988281 z"
         style="font-style:normal;font-variant:normal;font-weight:normal;font-stretch:normal;font-size:40px;font-family:'Old English Text MT';-inkscape-font-specification:'Old English Text MT, Normal';font-variant-ligatures:normal;font-variant-caps:normal;font-variant-numeric:normal;font-feature-settings:normal;text-align:start;writing-mode:lr-tb;text-anchor:start"
         id="path4558" />
      <path
         d="m -284.41797,24.37209 0.35156,0.644531 -7.10937,5.273438 q 2.08984,0 4.25781,1.054687 2.1875,1.054688 3.30078,2.929688 1.11328,1.875 1.11328,3.925781 0,3.261719 -2.26562,6.289063 -2.24609,3.007812 -6.42578,4.960937 -4.16016,1.953125 -7.85156,1.953125 -3.53516,0 -6.46485,-1.582031 -2.91015,-1.582031 -4.3164,-3.964844 -1.38672,-2.382812 -1.38672,-5.253906 0,-3.222656 1.5625,-5.996094 1.5625,-2.773437 5.80078,-6.132812 l 7.89062,-6.269532 q 3.30078,1.601563 5.15625,2.128907 1.85547,0.527343 3.65235,0.527343 1.34765,0 2.73437,-0.488281 z m -14.53125,1.210938 -0.33203,0.332031 v 9.238281 l 9.14063,-6.875 q -4.27735,-1.074219 -8.8086,-2.695312 z m -4.39453,3.59375 q -2.24609,2.304687 -3.16406,4.335937 -0.89844,2.03125 -0.89844,4.726563 0,2.167968 0.58594,3.828125 0.60547,1.660156 1.77734,3.203125 1.11328,-1.015625 1.40625,-1.71875 0.29297,-0.703125 0.29297,-2.617188 z m 7.5,9.882812 q 1.36719,0.9375 2.5,1.328125 1.13281,0.390625 2.5,0.390625 1.25,0 2.30469,-0.3125 1.05469,-0.3125 2.67578,-1.230469 -0.48828,-2.050781 -1.79688,-3.320312 -2.1289,-2.070313 -5.3125,-2.070313 -1.34765,0 -2.87109,0.527344 z m -0.85937,-4.296875 q -1.5625,0.742188 -2.57813,1.503906 v 3.28125 q 0,1.503907 -0.21484,2.03125 -0.21485,0.507813 -0.91797,1.074219 -0.42969,0.332031 -0.70313,0.546875 l -3.35937,2.8125 q 1.75781,1.855469 3.57422,2.753906 1.8164,0.878907 4.19922,1.015625 z m 0.85937,9.726563 q 2.44141,-1.289063 4.62891,-1.289063 2.10937,0 4.47265,1.171875 0.9961,-2.070312 0.9961,-3.945312 v -0.253907 q -1.75782,0.878907 -2.83203,1.171875 -1.07422,0.292969 -2.34375,0.292969 -1.21094,0 -2.44141,-0.371094 -1.23047,-0.371093 -2.48047,-1.09375 z m 0,5.273437 q 1.81641,-0.09766 2.96875,-0.507812 1.75781,-0.605469 3.32031,-1.757813 1.17188,-0.859375 2.38282,-2.382812 -2.36329,-0.957032 -4.17969,-0.957032 -2.20703,0 -4.49219,1.269532 z"
         style="font-style:normal;font-variant:normal;font-weight:normal;font-stretch:normal;font-size:40px;font-family:'Old English Text MT';-inkscape-font-specification:'Old English Text MT, Normal';font-variant-ligatures:normal;font-variant-caps:normal;font-variant-numeric:normal;font-feature-settings:normal;text-align:start;writing-mode:lr-tb;text-anchor:start"
         id="path4560" />
      <path
         d="m -275.39453,51.40334 -2.96875,-2.96875 2.96875,-2.988281 2.98828,2.988281 z"
         style="font-style:normal;font-variant:normal;font-weight:normal;font-stretch:normal;font-size:40px;font-family:'Old English Text MT';-inkscape-font-specification:'Old English Text MT, Normal';font-variant-ligatures:normal;font-variant-caps:normal;font-variant-numeric:normal;font-feature-settings:normal;text-align:start;writing-mode:lr-tb;text-anchor:start"
         id="path4562" />
      <path
         d="m -257.58203,28.258809 12.20703,-6.445313 q 3.39844,4.941407 3.39844,10.273438 0,4.003906 -1.75781,7.324219 -2.38282,4.511718 -9.60938,11.992187 -1.26953,-0.839844 -2.20703,-1.152344 -0.9375,-0.332031 -1.95313,-0.332031 -1.1914,0 -2.26562,0.3125 -1.07422,0.292969 -2.73438,1.171875 l -0.58593,-0.507812 q 1.58203,-2.949219 2.10937,-4.609375 0.54688,-1.679688 0.54688,-3.046875 0,-2.070313 -1.15235,-3.339844 -1.15234,-1.269531 -2.63672,-1.269531 -0.68359,0 -1.09375,0.214843 -0.39062,0.195313 -0.76171,0.742188 l -0.64454,-0.46875 q 0.46875,-1.328125 1.34766,-1.953125 0.87891,-0.644531 2.05078,-0.644531 0.74219,0 1.40625,0.253906 0.66406,0.234375 1.77735,1.015625 -0.19532,-6.601563 -2.71485,-10.429688 -1.40625,-2.148437 -3.02734,-2.148437 -0.82031,0 -1.32813,0.566406 -0.68359,0.761719 -1.01562,2.714844 l -0.76172,-0.234375 q 0.11719,-2.265625 0.66406,-3.613281 0.54688,-1.347657 1.60156,-2.089844 1.07422,-0.742188 2.26563,-0.742188 1.79687,0 3.61328,1.445313 1.81641,1.445312 3.26172,5 z m 0.29297,0.917969 q 0.66406,2.148437 0.89844,4.121093 2.63671,0.839844 4.76562,0.839844 2.73438,0 5.72266,-1.328125 -0.15625,-2.109375 -0.82032,-4.0625 -0.66406,-1.953125 -2.07031,-4.121094 z m 11.38672,4.609375 q -1.77735,0.742187 -3.04688,1.015625 -1.25,0.273437 -2.71484,0.273437 -2.22656,0 -4.66797,-0.859375 0.0781,0.9375 0.0781,1.40625 0,1.894531 -0.625,4.335938 1.17188,-0.371094 2.22657,-0.546875 1.05468,-0.175782 1.97265,-0.175782 2.57813,0 5.3711,1.269532 1.28906,-3.710938 1.40625,-6.71875 z m -1.77735,7.539062 q -1.71875,-0.742187 -2.7539,-0.976562 -1.01563,-0.234375 -2.26563,-0.234375 -0.97656,0 -2.08984,0.214843 -1.11328,0.195313 -2.36328,0.625 -0.625,2.070313 -1.38672,3.652344 -1.26953,2.617188 -3.04688,5.292969 2.10938,-1.601563 3.59375,-2.207031 1.95313,-0.78125 3.75,-0.78125 1.28907,0 2.96875,0.527343 1.36719,-1.796875 2.12891,-3.105468 0.76172,-1.308594 1.46484,-3.007813 z"
         style="font-style:normal;font-variant:normal;font-weight:normal;font-stretch:normal;font-size:40px;font-family:'Old English Text MT';-inkscape-font-specification:'Old English Text MT, Normal';font-variant-ligatures:normal;font-variant-caps:normal;font-variant-numeric:normal;font-feature-settings:normal;text-align:start;writing-mode:lr-tb;text-anchor:start"
         id="path4564" />
      <path
         d="m -241.17578,51.40334 -2.96875,-2.96875 2.96875,-2.988281 2.98828,2.988281 z"
         style="font-style:normal;font-variant:normal;font-weight:normal;font-stretch:normal;font-size:40px;font-family:'Old English Text MT';-inkscape-font-specification:'Old English Text MT, Normal';font-variant-ligatures:normal;font-variant-caps:normal;font-variant-numeric:normal;font-feature-settings:normal;text-align:start;writing-mode:lr-tb;text-anchor:start"
         id="path4566" />
      <path
         d="m -197.89453,23.512715 0.60547,0.625 q -1.28906,1.425781 -1.64063,2.34375 -0.35156,0.898438 -0.35156,2.734375 v 15.097656 q 0,2.324219 0.39063,2.929688 0.39062,0.585937 1.03515,0.585937 0.52735,0 1.52344,-0.898437 l 0.56641,0.761719 -4.72657,3.710937 q -1.69922,-0.859375 -2.30468,-1.972656 -0.58594,-1.132813 -0.58594,-3.945313 V 26.813496 l -3.28125,-2.519531 -1.28906,0.800781 v 9.726563 h 2.36328 l -2.36328,2.929687 v 8.222657 l 1.52343,-1.25 0.58594,0.625 -7.22656,6.054687 q -1.64063,-1.953125 -2.65625,-2.851562 -0.74219,-0.644532 -1.75781,-1.171875 v -0.703125 q 0.91796,-0.3125 1.21093,-0.996094 0.21485,-0.507813 0.21485,-2.382813 v -5.546875 h -5.91797 v 8.417969 q 0,3.476563 -1.77735,5.351563 -1.75781,1.875 -4.60937,1.875 -0.625,0 -2.22656,-0.234375 -1.09375,-0.15625 -1.58203,-0.15625 -0.9961,0 -1.46485,0.449218 -0.44922,0.449219 -0.44922,1.523438 h -0.76172 q -0.23437,-0.839844 -0.23437,-1.40625 0,-1.054688 0.54687,-1.992188 0.54688,-0.917968 1.46485,-1.367187 0.70312,-0.351563 2.57812,-0.527344 1.875,-0.175781 2.77344,-1.171875 0.89844,-1.015625 0.89844,-2.792969 0,-2.792968 -1.3086,-4.589843 -1.30859,-1.816407 -3.16406,-1.816407 -1.44531,0 -2.38281,1.367188 l -0.70313,-0.292969 q 0.52735,-1.445312 1.21094,-2.226562 0.70313,-0.78125 1.875,-1.230469 0.85938,-0.332031 2.5,-0.351563 -0.0195,-0.585937 -0.0195,-0.878906 0,-3.28125 1.32813,-5.527344 1.32812,-2.246093 4.12109,-4.121093 2.8125,-1.894532 8.06641,-4.238282 1.85546,0.996094 2.5,1.992188 0.66406,0.996094 0.74218,2.890625 l 7.63672,-4.882813 4.6875,3.496094 z m -18.16406,11.308594 v -5.820313 q 0,-2.128906 -0.54688,-3.085937 -0.54687,-0.957031 -1.95312,-1.542969 -1.34766,0.683594 -1.91407,1.25 -0.76171,0.800781 -1.13281,1.914063 -0.37109,1.113281 -0.37109,3.203125 v 6.191406 l 1.62109,-2.109375 z m 7.24609,-9.140625 -3.24219,2.128906 v 7.011719 h 3.24219 z m -13.30078,0.742187 q -1.69922,1.328125 -2.20703,2.539063 -0.50781,1.191406 -0.50781,4.179687 v 11.054688 q 0,2.714844 -0.70313,3.808594 -0.68359,1.09375 -2.67578,1.894531 0.87891,0.05859 1.48437,0.05859 1.44532,0 2.34375,-0.488282 0.91797,-0.507812 1.19141,-1.230468 0.29297,-0.742188 0.29297,-2.578125 V 30.93459 q 0,-1.679687 0.21484,-2.792969 0.13672,-0.683593 0.56641,-1.71875 z m 13.30078,11.328125 h -3.24219 v 5.058594 q 0,2.617188 0.35157,3.359375 0.5664,1.269531 1.52343,1.269531 0.50782,0 1.36719,-0.761718 z"
         style="font-style:normal;font-variant:normal;font-weight:normal;font-stretch:normal;font-size:40px;font-family:'Old English Text MT';-inkscape-font-specification:'Old English Text MT, Normal';font-variant-ligatures:normal;font-variant-caps:normal;font-variant-numeric:normal;font-feature-settings:normal;text-align:start;writing-mode:lr-tb;text-anchor:start"
         id="path4568" />
    </g>
  </g>
</svg>
